<?xml version="1.0" encoding="UTF-8"?>
<svg id="_레이어_2" xmlns="http://www.w3.org/2000/svg" version="1.1" viewBox="0 0 774.61 304.29">
  <!-- Generator: Adobe Illustrator 30.4.0, SVG Export Plug-In . SVG Version: 2.1.4 Build 226)  -->
  <defs>
    <style>
      .st0 {
        fill: #ffce2c;
      }

      .st1 {
        fill: #fcc204;
      }

      .st2 {
        fill: #e9ad03;
      }

      .st3 {
        fill: #3f3934;
      }
    </style>
  </defs>
  <circle class="st3" cx="165.56" cy="196.37" r="15.27"/>
  <circle class="st3" cx="63.8" cy="196.37" r="15.27"/>
  <path class="st3" d="M283.21,222.1c-8.56-4.12-15.48-10-20.77-17.62l17.27-21.94c8.4,12.45,18.44,18.67,30.11,18.67,15.71,0,23.57-9.8,23.57-29.41v-83.08h-55.08v-26.37h86.12v107.82c0,19.29-4.51,33.8-13.54,43.53-9.03,9.73-22.33,14.59-39.91,14.59-9.96,0-19.22-2.06-27.77-6.18Z"/>
  <path class="st3" d="M424.62,113.13v112.74h-27.39v-112.74h27.39Z"/>
  <path class="st3" d="M510.81,224.07c-4.36,1.2-8.92,1.8-13.7,1.8-12.08,0-21.43-3.31-28.03-9.94-6.61-6.62-9.9-16.21-9.9-28.76v-51.59h-17.07v-22.2h17.07v-27.06h27.18v27.06h28.03v22.2h-28.03v51.17c0,5.22,1.26,9.23,3.79,12.05,2.53,2.82,6.11,4.23,10.75,4.23,5.06,0,9.48-1.55,13.28-4.65l7.59,20.3c-2.95,2.4-6.6,4.2-10.96,5.39Z"/>
  <path class="st3" d="M652.68,225.8h-27.1v-16.52c-4.11,5.88-9.33,10.35-15.64,13.44-6.32,3.08-13.44,4.63-21.37,4.63-10.57,0-20.12-2.5-28.64-7.49-8.52-4.99-15.2-12.08-20.05-21.26-4.85-9.18-7.27-19.79-7.27-31.83s2.42-22.43,7.27-31.61c4.85-9.18,11.53-16.26,20.05-21.26,8.52-4.99,18.06-7.49,28.64-7.49,7.63,0,14.5,1.43,20.6,4.3,6.09,2.86,11.12,7.16,15.09,12.89v-61.24h28.42v163.46ZM615.89,192.87c6.02-6.53,9.03-15.23,9.03-26.1s-3.01-19.35-9.03-25.88c-6.02-6.53-13.59-9.8-22.69-9.8s-16.89,3.23-22.91,9.69c-6.02,6.46-9.03,15.13-9.03,25.99s3.01,19.57,9.03,26.1c6.02,6.54,13.66,9.8,22.91,9.8s16.67-3.27,22.69-9.8Z"/>
  <path class="st3" d="M757.14,123.77c8.5,8.08,12.75,20.2,12.75,36.35v65.75h-25.5v-15.38c-2.95,5.48-7.31,9.66-13.07,12.54-5.76,2.88-12.64,4.32-20.65,4.32-12.22,0-21.92-3.12-29.08-9.38-7.16-6.25-10.75-14.36-10.75-24.34s3.65-18.37,10.96-24.34c7.3-5.97,18.61-8.96,33.93-8.96h26.97c0-4.77-.7-8.64-2.11-11.59-3.09-9.55-11.03-14.33-23.81-14.33-6.04,0-11.91,1.02-17.6,3.06-5.69,2.04-10.57,4.74-14.65,8.11l-9.9-19.81c5.76-4.49,12.68-7.97,20.76-10.43,8.08-2.46,16.4-3.69,24.97-3.69,16.02,0,28.27,4.04,36.77,12.12ZM733.02,203.53c4.49-2.95,7.72-7.23,9.69-12.85v-13.49h-24.02c-14.19,0-21.28,5.06-21.28,15.17,0,4.78,1.75,8.57,5.27,11.38,3.51,2.81,8.36,4.21,14.54,4.21s11.31-1.48,15.8-4.43Z"/>
  <path class="st3" d="M123.33,205.18c-1.15-1.53-2.93-2.41-4.84-2.41h-7.94c-1.91,0-3.69.88-4.84,2.41-5.24,6.95-20.94,27.08-33.19,35.44-1.65,1.13-.91,3.69,1.09,3.69h20.6l20.31-22.73,20.31,22.73h20.6c2,0,2.74-2.56,1.09-3.69-12.24-8.36-27.95-28.49-33.18-35.44Z"/>
  <g>
    <path class="st2" d="M142.5,104.68c1.37.13,3.05-.71,3.21-2.2.88-8.38,1.95-16.54,3.84-24.79,1.49-6.54,3.04-12.91,5.53-19.03-3.22-1.59-6.54-2.97-10.04-4.21-1.76-.62-3.39-1.27-5.36-1.54l-.05,49.34c0,1.51,1.65,2.31,2.87,2.43Z"/>
    <path class="st2" d="M76.28,65.06c.02.07.04.15.06.23.02.08.03.16.04.25.04.25.07.52.17.75.09.23-.2.59.08.69l.31.5c.59,2.13,1.14,4.27,1.66,6.41.17.72.34,1.43.5,2.15.33,1.43.63,2.87.93,4.31.15.72.29,1.44.43,2.17.26,1.35.5,2.7.72,4.05.03.19.06.39.1.58.22,1.36.44,2.72.63,4.09.52,3.65.94,7.32,1.27,11.01.02.19.05.37.11.54.03.09.06.17.1.25.07.16.16.31.27.45.1.14.22.27.35.39.13.12.27.22.42.32.22.14.46.25.71.34.08.03.17.05.25.07.25.07.51.1.76.11.09,0,.19,0,.28,0,.29-.02.57-.06.85-.14.18-.05.36-.12.53-.19.51-.23.95-.59,1.22-1.06.18-.31.28-.68.28-1.1l.02-37.92-.03-11.38c-5.34,1.43-10.35,3.39-15.25,5.68l.74,2.16,1.49,4.31Z"/>
    <path class="st1" d="M83.65,103.47c-.1-.14-.19-.29-.27-.45.07.16.16.31.27.45Z"/>
    <path class="st1" d="M83.18,102.23c-.32-3.69-.74-7.36-1.27-11.01.52,3.65.94,7.32,1.27,11.01Z"/>
    <path class="st0" d="M224.15,164.76c-1.59-7.38-5.45-15.08-13.34-17.77l-.14-11.8c-.07-1.17-.16-2.34-.26-3.5-.63-7.16-1.88-14.19-4.15-21.1-.2-.6-.4-1.19-.61-1.79-3.49-9.84-8.73-18.96-15.46-27.2-6.66-8.16-14.67-15.01-23.92-20.53l-6.5-3.63c-1.35-.75-4.04-.28-4.65,1.23-2.49,6.12-4.04,12.49-5.53,19.03-1.88,8.25-2.96,16.41-3.84,24.79-.16,1.49-1.84,2.33-3.21,2.2-1.22-.12-2.87-.92-2.87-2.43l.05-49.34-.03-2.21c-.06-4.79-6.91-7.09-11.82-8.06-4.41-.88-8.89-1.31-13.36-1.3-4.36,0-8.72.43-13.03,1.27-5.18,1-11.57,3.06-12.02,8.1-.07.79-.13,1.56-.12,2.2l.03,11.37-.02,37.92c0,.42-.11.79-.28,1.1-.27.47-.71.82-1.23,1.06-.17.08-.35.14-.53.19-.28.08-.56.12-.85.14-.09,0-.19,0-.28,0-.25,0-.51-.04-.76-.11-.08-.02-.17-.05-.25-.07-.25-.09-.49-.2-.71-.34-.15-.09-.29-.2-.42-.32s-.25-.25-.35-.38c-.1-.14-.19-.29-.27-.45-.04-.08-.07-.16-.1-.25-.06-.17-.09-.35-.11-.54-.11-1.3-.31-2.58-.45-3.87-.07-.89-.16-1.81-.29-2.81-.09-.74-.19-1.41-.28-2.12-.1-.74-.15-1.48-.25-2.21-.2-1.36-.41-2.73-.63-4.09-.03-.15-.05-.31-.08-.46-2.97-18.93-6.45-26.61-7.08-27.89l-.07-.21c-1.06-1.32-2.73-1.83-4.6-1.21-14.3,7.21-26.49,17.59-35.2,30.36-3.38,4.95-6.23,9.92-8.54,15.36-1.11,2.61-2.12,5.23-3,7.87-1.78,5.33-3.04,10.76-3.56,16.4l-.42,4.62-.37,4-.1,10.99c-8.13,2.82-12.33,11.19-13.53,18.91-.3,1.94.67,3.88,2.43,4.97,2.81,1.74,5.8,2.93,9,4.2,3.52,1.4,7.07,2.7,10.67,3.92,9.8,3.31,19.86,5.93,30.08,7.94,16.75,3.3,33.92,4.94,50.99,5.21h6.58s6.44,0,6.44,0c15.64-.37,31.15-1.6,46.56-4.37,1.3-.23,2.6-.48,3.9-.73,10.06-1.96,19.93-4.47,29.57-7.62,3.28-1.07,6.55-2.22,9.78-3.44l9.99-4.39c2.91-1.28,4.02-3.94,3.4-6.82Z"/>
  </g>
  <circle class="st3" cx="411.13" cy="77.16" r="16.44"/>
</svg>