<?xml version="1.0" encoding="UTF-8"?>
<svg id="_레이어_2" xmlns="http://www.w3.org/2000/svg" version="1.1" viewBox="0 0 638.38 677.65">
  <!-- Generator: Adobe Illustrator 30.4.0, SVG Export Plug-In . SVG Version: 2.1.4 Build 226)  -->
  <defs>
    <style>
      .st0 {
        fill: #ffce2c;
      }

      .st1 {
        fill: #e9ad03;
      }
    </style>
  </defs>
  <path class="st1" d="M203.78,168.87l3.99-3.33c3.89-3.24,8.02-6.24,9.88-10.75l7.4-1.84c27.2-1.3,55.87,14.71,75.95,32.94,43.22,39.23,70.66,101.74,81.69,158.67.84,4.33-6.34,6.26-9.32,6.25-4.03-.02-7.24-3.02-8.92-7.69l-11.64-32.21c-7.28-20.16-16.71-38.69-28.06-56.89-13.58-21.76-29.41-40.74-50.05-56.02-19.52-14.45-41.26-25.06-65.69-27.58-2.01-.21-4.64,1.1-5.22-1.54Z"/>
  <path class="st1" d="M411.6,146.91c.97,1.34,2.32,3.02,4,4.18,17.44,12.1,30.57,27.25,42.03,45.09,23.12,35.97,38.59,76.07,44.07,118.51.58,4.47-2.36,8.6-6.89,8.12-13.3-58.57-37.26-119.18-81.25-160.46l-23.84-19.42-1.99-.35c-.47-.08-.63-1.17-.66-1.77l24.54,6.09Z"/>
  <path class="st0" d="M574.94,375.79l-8.84-13.36c-6.45-93.41-55.96-184.4-146.98-216.86-2.93-1.04-5.86-.73-7.53,1.34.97,1.34,2.32,3.02,4,4.18,17.44,12.1,30.57,27.25,42.03,45.09,23.12,35.97,38.59,76.07,44.07,118.51.58,4.47-2.36,8.6-6.89,8.12-13.3-58.57-37.26-119.18-81.25-160.46l-23.84-19.42-1.99-.35c-.47-.08-.63-1.17-.66-1.77l-9.71-5.56c-25.44-14.58-54.04-20.29-83.42-16.55-22.73,2.89-44.81,9.01-63.95,20.68-6.24,3.8-9.99,9.73-12.33,15.41l7.4-1.84c27.2-1.3,55.87,14.71,75.95,32.94,43.22,39.23,70.66,101.74,81.69,158.67.84,4.33-6.34,6.26-9.32,6.25-4.03-.02-7.24-3.02-8.92-7.69l-11.64-32.21c-7.28-20.16-16.71-38.7-28.06-56.89-13.58-21.76-29.41-40.74-50.05-56.02-19.52-14.45-41.26-25.06-65.69-27.58-2.01-.21-4.64,1.1-5.22-1.54l-12.47,3.18-14.65,11.36c-4.75,3.69-8.08,7.67-12.13,11.95-31.77,33.6-49.79,72.12-60.98,117.2l-15.24,11.71c-16.8,12.91-24.69,33.61-22.97,55.33.94,11.92,6.99,21.82,13.19,31.48,17.15,26.72,54.21,54.83,82.21,70.79,12.8,7.3,25.93,12.56,39.23,17.56,17.87,6.73,36.31,11.91,54.93,16.21,22.92,5.29,46.28,7.33,70.24,8.77l40.83.22,43.43-3.54c26.04-3.4,51.1-9,76.11-16.57l28.2-10.95,18.08-8.75,20.99-13.33c7.59-4.82,14.09-12.46,19.86-19.81,17.52-22.35,18-52.17,2.29-75.91Z"/>
</svg>