<?xml version="1.0" encoding="UTF-8"?>
<svg id="_레이어_2" xmlns="http://www.w3.org/2000/svg" version="1.1" viewBox="0 0 638.38 677.65">
  <!-- Generator: Adobe Illustrator 30.4.0, SVG Export Plug-In . SVG Version: 2.1.4 Build 226)  -->
  <defs>
    <style>
      .st0 {
        fill: #403b37;
      }

      .st1 {
        fill: #ffce2c;
      }

      .st2 {
        fill: #e9ad03;
      }
    </style>
  </defs>
  <path class="st0" d="M394.87,520.76c3.35,12.56,16.89,21.33,31.65,25.44,27.2,7.57,57.56,3.11,80.77-11.16,19.21-11.8,22.86-36.13,5.15-49.9-7.63-5.94-23.48-5.41-30.41.45l-27.16,22.94c-16.38,12.34-36.26,16.03-60,12.23Z"/>
  <path class="st0" d="M456.81,398.42c-21.5-3.12-38.34,11.91-40.79,30.45-2.67,20.27,11,37.89,30.29,40.57,19.53,2.72,37.84-10.29,40.85-28.8,3.29-20.2-8.66-39.07-30.36-42.22Z"/>
  <path class="st1" d="M97.66,361.92l.98-53.78c.05-2.82.27-5.97.64-9.35,0,0,0,0,0,0,0-106.14,94.38-192.18,210.81-192.18,91.13,0,168.74,52.71,198.18,126.51,10.93,23.7,16.44,50.05,18.44,76.91l.75,47.18c.05,3.25,4.54,5.15,6.91,6.59l40.16,24.38c6.5,3.94,9.07,11.62,7.08,19.14-1.41,5.33-7.57,11.46-15.4,11.46l-91.48.03-218.22.06-111.01-.02h-21.75s-28.89-.38-28.89-.38c-7.64-.1-12.9-8.12-15.24-13-6.33-13.19,5.25-31.69,18.03-43.56Z"/>
  <path class="st2" d="M275.16,139.93l-19.16,4.86c-19.36,4.91-36.3,14.26-52.48,25.68-1.18.31-2.22,1.65-2.9,2.11-23.79,16.25-49.74,48.66-59.56,74.76l-5,13.3c-1.63,4.35,2.04,7.93,5.7,8.35,3.19.37,5.94-2.02,7.35-5.64,19.08-48.93,57.7-84.43,107.58-100.1,48.61-15.27,99.09-8.14,141.86,19.96,27.69,18.19,48.09,43.83,61.74,74.09,1.65,3.66,6.97,4.31,9.65,3.02,3.2-1.54,3.95-5.73,2.25-9.68l-5.54-12.39c-21.17-41.47-54.47-73.82-98.39-89.8l-5.17-1.88c-28.31-10.3-58.22-11.65-87.95-6.64Z"/>
</svg>