<?xml version="1.0" encoding="UTF-8"?>
<svg id="_레이어_2" xmlns="http://www.w3.org/2000/svg" version="1.1" viewBox="0 0 638.38 677.65">
  <!-- Generator: Adobe Illustrator 30.4.0, SVG Export Plug-In . SVG Version: 2.1.4 Build 226)  -->
  <defs>
    <style>
      .st0 {
        fill: none;
      }

      .st1 {
        fill: #ffce2c;
      }

      .st2 {
        fill: #45403a;
      }

      .st3 {
        fill: #e9ad03;
      }
    </style>
  </defs>
  <path class="st2" d="M347.29,531.32c-23.39,36.23-85.83,28.41-114.45-3.59-11.95,12.14-26.76,18.5-43.93,17.85-17.9-.67-33.63-11.15-38.3-29.57,42.62,7.33,55.84-25.39,66.97-30.44,6.8-3.09,11.96,2.03,17.91,2.12,8.33.13,18.36-6.68,25.57,0l20.99,19.44c18.06,16.73,39.7,24.15,65.23,24.18Z"/>
  <path class="st3" d="M447.58,134.66c-84.62-1.69-142.22,55.29-163.97,135.23-.93,3.41-4.72,3.37-6.48,3.93-2.11.68-8.81-.73-8.32-4.07,11.86-80.58,55.46-154.18,141.83-159.23,2.26-.13,3.71-1.26,4.7-3.13,12.74,6.19,25.38,14.19,32.24,27.27Z"/>
  <path class="st2" d="M364.21,471.47c-10.8,14.02-29.65,16.21-43.56,9.37-15.62-7.69-23.03-24.8-18.39-42.4,5.94-22.5,30.76-32.25,50.71-22.1,19.55,9.95,25.83,36.16,11.23,55.12Z"/>
  <path class="st2" d="M141.64,466.64c-20.28-14.05-19.34-46.17.22-59.55,14.77-10.1,33.54-3.59,41.58,11.04,6.35,11.56,6.65,25.07.73,36.85-7.64,15.18-26.83,22.54-42.53,11.66Z"/>
  <path class="st3" d="M217.74,137.73l-20.83,35.02c-21.49,36.13-21.7,88.83-31.64,82.74-2.31-1.41-2.83-3.17-2.46-6.89,3.5-35.05,11.31-68.65,28.21-99.59,1.9-3.48,4.57-5.82,2.62-10.05,6.13-5.34,15.94.45,24.1-1.23Z"/>
  <path class="st0" d="M194.16,143.08c-.47,2.02-1.96,3.75-3.15,5.93-16.89,30.95-24.7,64.54-28.21,99.59-.37,3.72.15,5.47,2.46,6.89,9.94,6.09,10.15-46.61,31.64-82.74l11.15-18.74-7.29-3.64-6.61-7.29Z"/>
  <path class="st1" d="M595.25,358.87c-4.17-16.16-11.62-29.69-25.72-39.18-8.3-78.48-56.19-145.6-121.95-185.02-84.62-1.69-142.22,55.29-163.97,135.23-.93,3.41-4.72,3.37-6.48,3.93-2.11.68-8.81-.73-8.32-4.07,11.86-80.58,55.46-154.18,141.83-159.23,2.26-.13,3.71-1.26,4.7-3.13-53.44-25.98-127.75-27.29-175.35,9.91,39.82-10.41-22.26,41.54-22.26,41.54l-9.68-4.83-11.15,18.74c-21.49,36.13-21.7,88.83-31.64,82.74-2.31-1.41-2.83-3.17-2.46-6.89,3.5-35.05,11.31-68.65,28.21-99.59,1.19-2.17,2.67-3.9,3.15-5.93h0c.28-1.21.2-2.53-.53-4.12-51.1,44.51-98.07,116.01-101.56,186.93-12.39,8.45-24.72,17.25-32.17,29.66-8.65,14.39-4.97,30.03,8.45,38.51,46.04,29.08,117.64,36.15,172.95,38.81l66.78.12,23.47-1.12c41.83-1.99,82.6-6.93,123.11-12.86l68.52-13.86c21.91-4.43,44.03-12.34,63.72-23.43,9.14-5.15,10.52-14.4,8.34-22.85Z"/>
  <path class="st3" d="M200.77,150.37l7.29,3.64,9.68-16.28c2.25-3.78,5.91-4.97,8.91-8.2,4.15-4.47,8.62-8.53,13.35-12.23,0,0,0,0,0,0-39.84,10.41-45.83,25.78-45.83,25.78h0s6.61,7.29,6.61,7.29Z"/>
  <path class="st1" d="M226.65,129.53c-3.01,3.23-6.66,4.42-8.91,8.2l-9.68,16.28,9.68,4.83s62.08-51.95,22.26-41.54c-4.73,3.69-9.19,7.76-13.35,12.23Z"/>
  <path class="st1" d="M191.01,149.01s8.79-14.1,15.18-17.84c0,0-12.2,5.38-21.42,15.82s6.24,2.02,6.24,2.02Z"/>
</svg>