<?xml version="1.0" encoding="UTF-8"?>
<svg id="_레이어_2" xmlns="http://www.w3.org/2000/svg" version="1.1" viewBox="0 0 638.38 677.65">
  <!-- Generator: Adobe Illustrator 30.4.0, SVG Export Plug-In . SVG Version: 2.1.4 Build 226)  -->
  <defs>
    <style>
      .st0 {
        fill: #ffce2c;
      }

      .st1 {
        fill: #fcc204;
      }

      .st2 {
        fill: #e9ad03;
      }
    </style>
  </defs>
  <path class="st2" d="M397.03,245.93c3.56.34,7.93-1.85,8.35-5.74,2.29-21.86,5.07-43.15,9.99-64.68,3.88-17.06,7.91-33.68,14.38-49.65-8.37-4.15-17.01-7.75-26.11-10.98-4.58-1.62-8.82-3.31-13.94-4.02l-.13,128.72c0,3.94,4.29,6.03,7.46,6.34Z"/>
  <path class="st2" d="M224.81,142.56c.05.18.1.39.16.6s.08.42.1.65c.1.65.18,1.36.44,1.96.23.6-.52,1.54.21,1.8l.81,1.3c1.53,5.56,2.96,11.14,4.32,16.72.44,1.88.88,3.73,1.3,5.61.86,3.73,1.64,7.49,2.42,11.24.39,1.88.75,3.76,1.12,5.66.68,3.52,1.3,7.04,1.87,10.57.08.5.16,1.02.26,1.51.57,3.55,1.14,7.1,1.64,10.67,1.35,9.52,2.44,19.1,3.3,28.72.05.5.13.97.29,1.41.08.23.16.44.26.65.18.42.42.81.7,1.17.26.37.57.7.91,1.02s.7.57,1.09.83c.57.37,1.2.65,1.85.89.21.08.44.13.65.18.65.18,1.33.26,1.98.29h.73c.75-.05,1.48-.16,2.21-.37.47-.13.94-.31,1.38-.5,1.33-.6,2.47-1.54,3.17-2.77.47-.81.73-1.77.73-2.87l.05-98.93-.08-29.69c-13.89,3.73-26.92,8.84-39.66,14.82l1.92,5.64,3.88,11.24v-.05Z"/>
  <path class="st1" d="M243.98,242.77c-.26-.37-.49-.76-.7-1.17.18.42.42.81.7,1.17Z"/>
  <path class="st1" d="M242.76,239.53c-.83-9.63-1.92-19.2-3.3-28.72,1.35,9.52,2.44,19.1,3.3,28.72Z"/>
  <path class="st0" d="M609.38,402.67c-4.14-19.25-14.17-39.34-34.69-46.36l-.36-30.79c-.18-3.05-.42-6.1-.68-9.13-1.64-18.68-4.89-37.02-10.79-55.05-.52-1.57-1.04-3.1-1.59-4.67-9.08-25.67-22.7-49.47-40.21-70.96-17.32-21.29-38.15-39.16-62.21-53.56l-16.9-9.47c-3.51-1.96-10.51-.73-12.09,3.21-6.48,15.97-10.51,32.59-14.38,49.65-4.89,21.52-7.7,42.81-9.99,64.68-.42,3.89-4.79,6.08-8.35,5.74-3.17-.31-7.46-2.4-7.46-6.34l.13-128.72-.08-5.77c-.16-12.5-17.97-18.5-30.74-21.03-11.47-2.3-23.12-3.42-34.75-3.39-11.34,0-22.68,1.12-33.89,3.31-13.47,2.61-30.09,7.98-31.26,21.13-.18,2.06-.34,4.07-.31,5.74l.08,29.66-.05,98.93c0,1.1-.29,2.06-.73,2.87-.7,1.23-1.85,2.14-3.2,2.77-.44.21-.91.37-1.38.5-.73.21-1.46.31-2.21.37h-.73c-.65,0-1.33-.1-1.98-.29-.21-.05-.44-.13-.65-.18-.65-.23-1.27-.52-1.85-.89-.39-.23-.75-.52-1.09-.83s-.65-.65-.91-.99c-.26-.37-.49-.76-.7-1.17-.1-.21-.18-.42-.26-.65-.16-.44-.23-.91-.29-1.41-.29-3.39-.81-6.73-1.17-10.1-.18-2.32-.42-4.72-.75-7.33-.23-1.93-.49-3.68-.73-5.53-.26-1.93-.39-3.86-.65-5.77-.52-3.55-1.07-7.12-1.64-10.67-.08-.39-.13-.81-.21-1.2-7.72-49.39-16.77-69.42-18.41-72.76l-.18-.55c-2.76-3.44-7.1-4.77-11.96-3.16-37.19,18.81-68.89,45.89-91.54,79.21-8.79,12.91-16.2,25.88-22.21,40.07-2.89,6.81-5.51,13.64-7.8,20.53-4.63,13.91-7.91,28.07-9.26,42.79l-1.09,12.05-.96,10.44-.26,28.67c-21.14,7.36-32.07,29.19-35.19,49.33-.78,5.06,1.74,10.12,6.32,12.97,7.31,4.54,15.08,7.64,23.41,10.96,9.15,3.65,18.39,7.04,27.75,10.23,25.49,8.64,51.65,15.47,78.23,20.71,43.56,8.61,88.22,12.89,132.61,13.59h33.86c40.67-.97,81.01-4.17,121.09-11.4,3.38-.6,6.76-1.25,10.14-1.9,26.16-5.11,51.83-11.66,76.9-19.88,8.53-2.79,17.03-5.79,25.43-8.97l25.98-11.45c7.57-3.34,10.45-10.28,8.84-17.79v.03Z"/>
</svg>