<?xml version="1.0" encoding="UTF-8"?>
<svg id="_레이어_2" xmlns="http://www.w3.org/2000/svg" version="1.1" viewBox="0 0 638.38 677.65">
  <!-- Generator: Adobe Illustrator 30.4.0, SVG Export Plug-In . SVG Version: 2.1.4 Build 226)  -->
  <defs>
    <style>
      .st0 {
        fill: #403b37;
      }

      .st1 {
        fill: #ffce2c;
      }

      .st2 {
        fill: #e9ad03;
      }
    </style>
  </defs>
  <path class="st0" d="M423.72,557.04c-23.21,39.26-81.03,64.5-121.45,44.55-5.36-2.64-10.1-5.73-13.1-11.96,30.6-6.29,58.5-22.76,72.16-50.64,10.1-20.61,29.86-33.16,52.33-24.4,10.69-15.83,31.1-19.41,46.84-8.88,23.3,15.6,38.74,23.03,68.72,12.84.18,9.47-4.71,17.45-9.94,24.94-23.19,27.96-63.21,31.47-95.55,13.56Z"/>
  <path class="st2" d="M162.25,131.11c4.9-3.55,9.9-7.53,11.69-13.47,19.89-7.77,45.12-3.09,64.57,7.44,21.19,11.48,38.16,27.17,52.49,46.29,24.88,33.18,44.15,74.48,53.92,114.62.2,4.89-7.05,7.19-10.25,7.04-4.78-.21-8.35-3.18-10.13-8.27-12.38-35.33-29.81-68.42-53.95-97.01-25.19-29.82-66.4-58.51-106.26-55.08-1.27.11-1.93-.61-2.08-1.56Z"/>
  <path class="st0" d="M324.28,465.08c15.95,15.91,16.59,40.53,1.69,56.59s-40.65,17.01-56.39.97c-14.86-15.14-14.09-38.32-.75-53.83l6.14-1.18,33.39-1.78c5.6-.9,10.98-1.29,15.91-.77Z"/>
  <path class="st0" d="M522.75,407.25c18.21,17.11,11.51,49.05-8.32,63.59-13.59,9.97-33.03,8.76-43.45-4.62-7.43-9.54-7.19-22-4.69-33.21l6.02-3.19,42.92-19.24,7.52-3.33Z"/>
  <path class="st2" d="M383.28,92.69c.51,1.67,1.83,3.16,3.57,4.5,19.64,15.16,35.76,33.26,48.54,54.82,15.81,26.68,26.75,55.19,33.36,85.57.48,2.19-.87,3.97-1.26,5.11-.43,1.3-4.8,2.66-5.32,1.17-10.02-28.74-21.1-56.65-37.08-82.52-12.08-19.55-25.04-37.58-42.05-52.76l-21.88-17.05c-1.18-.92-3.8-.69-3.46-2.94l25.56,4.1Z"/>
  <path class="st1" d="M575.72,305.7c-6.44-6.13-12.72-10.79-20.78-15.23-20.57-92.59-71.58-172.16-165.84-199.97-2.5-.74-5.77.52-5.82,2.24.51,1.66,1.83,3.14,3.57,4.47,19.64,15.06,35.76,33.04,48.54,54.47,15.81,26.51,26.75,54.84,33.36,85.03.48,2.17-.87,3.94-1.26,5.08-.43,1.29-4.8,2.65-5.32,1.17-10.02-28.56-21.1-56.29-37.08-82-12.08-19.43-25.04-37.34-42.05-52.43l-21.88-16.95c-1.18-.92-3.8-.69-3.46-2.92-23.88-14.39-50.93-20.91-79.63-19.39-31.83,2.5-62.57,11.84-89.66,28.14-8.05,4.84-12.07,12.24-14.5,20.29,19.89-7.77,45.12-3.09,64.57,7.44,21.19,11.48,38.16,27.17,52.49,46.29,24.88,33.18,44.15,74.48,53.92,114.62.2,4.89-7.05,7.19-10.25,7.04-4.78-.21-8.35-3.18-10.13-8.27-12.38-35.33-29.81-68.42-53.95-97.01-25.19-29.82-66.4-58.51-106.26-55.08-1.27.11-1.93-.61-2.08-1.56-5.46,3.96-11.44-.68-23.9,10.99-50.16,46.95-73.96,108.85-79.68,176.7l-.81,30.1c-20.25,20.9-28.03,50.99-7.75,72.21,11.11,11.63,25.23,19.35,40.73,24.59,28.19,9.53,56.74,15.37,86.4,18.88,14.6,1.73,28.13,3.45,42.62,3.62l48.99.55,6.14-1.18,33.39-1.78c5.6-.9,10.98-1.29,15.91-.77,47.2-5.68,96.71-16.95,142.01-32.07l6.02-3.19,42.92-19.24,7.52-3.33c19.01-10.64,36.31-23.49,50.71-40.4,15.44-18.12,19.38-44.86,2.26-61.15Z"/>
</svg>